<svg xmlns="http://www.w3.org/2000/svg" xmlns:xlink="http://www.w3.org/1999/xlink" version="1.1" id="Layer_22" x="0px" y="0px" width="100px" height="100px" viewBox="0 0 100 100" enable-background="new 0 0 100 100" xml:space="preserve">
<g>
	<path fill="#000000" d="M44.814,59.583c2.863,2.864,7.507,2.864,10.372,0l31.116-31.117c0.074-0.074,0.123,0.193,0.192,0.115   c-0.337-2.783-2.681-4.597-5.557-4.597H19.062c-2.875,0-5.22,1.814-5.556,4.599c0.069,0.078,0.118-0.013,0.193,0.06L44.814,59.583z   "/>
	<path fill="#000000" d="M82.411,37.984L55.186,65.208c-2.862,2.864-7.507,2.864-10.371,0L17.589,37.984   c-1.357-0.564-3.286-0.963-4.151,0.766v30.938c0,3.106,2.519,6.328,5.625,6.328h61.875c3.106,0,5.625-3.222,5.625-6.328V38.75   C85.697,37.021,83.77,37.42,82.411,37.984z"/>
</g>
</svg>